<svg xmlns="http://www.w3.org/2000/svg" width="45" height="60" viewBox="0 0 45 60">
    <g fill="none" fill-rule="nonzero">
        <path fill="#F02422" d="M35.164 21.917c-1.167-1.275-2.981-2.994-3.753.889-.263 1.32-.876 2.338-1.402 3.157-.566-2.867-2.27-5.834-3.876-7.835-.601-.748-2.733-3.724-3.143-8.703a.895.895 0 0 0-1.496-.59c-5.275 4.789-8.17 11.375-8.278 18.79 0 0-2.197-1.852-3.39-5.296-.321-.928-1.565-1.105-2.105-.285-.103.158-.2.315-.286.468C3.365 29.71 1.407 38.45 3.217 46.58c3.027 13.617 23.046 17.424 33.644 8.865 10.37-8.373 7.073-23.958-1.697-33.528z"/>
        <g fill="#DA0C0A">
            <path d="M6.034 47.435c-1.789-8.218.105-17.043 4.08-24.352-.1-.243-.198-.494-.288-.754-.321-.928-1.565-1.105-2.104-.285a8.24 8.24 0 0 0-.287.469c-4.07 7.196-6.028 15.936-4.218 24.067 1.38 6.211 6.297 10.38 12.242 12.266-4.638-2.246-8.27-6.097-9.425-11.411zM16.047 27.488c.22-6.73 2.654-12.763 7.01-17.399a19.73 19.73 0 0 1-.066-.657c-.063-.75-.913-1.125-1.463-.628-5.095 4.607-8.2 11.126-8.312 18.82l.954.741c.47.365 1.106.349 1.554.015.268-.227.306-.57.323-.892z"/>
        </g>
        <path fill="#FF7300" d="M31.964 31.87c-.862-.94-2.202-2.21-2.772.658-.194.975-.647 1.726-1.035 2.332-.418-2.118-1.677-4.31-2.863-5.788-.444-.552-2.019-2.75-2.322-6.428a.661.661 0 0 0-1.104-.436c-3.897 3.537-6.036 8.402-6.115 13.879 0 0-1.623-1.368-2.504-3.912-.237-.685-1.156-.816-1.554-.21a6.098 6.098 0 0 0-.212.346c-3.006 5.316-4.452 11.77-3.115 17.777 2.235 10.057 17.022 12.87 24.85 6.548 7.659-6.185 5.224-17.696-1.254-24.765z"/>
        <path fill="#EC4B24" d="M11.156 50.876c-1.184-5.87.042-12.17 2.641-17.415a10.09 10.09 0 0 1-.548-1.286c-.237-.685-1.156-.816-1.555-.21a6.062 6.062 0 0 0-.21.346c-3.007 5.316-4.453 11.77-3.117 17.777 1.04 4.677 4.795 7.787 9.302 9.14-3.202-1.606-5.723-4.427-6.513-8.352z"/>
        <path fill="#FFC900" d="M29.043 40.958c-.584-.637-1.491-1.497-1.877.445-.131.66-.438 1.169-.7 1.579-.284-1.434-1.136-2.918-1.939-3.918-.3-.374-1.366-1.862-1.571-4.351a.448.448 0 0 0-.748-.296c-2.638 2.395-4.086 5.688-4.14 9.395 0 0-1.098-.926-1.694-2.648-.16-.464-.783-.552-1.052-.142-.052.079-.1.158-.144.234-2.035 3.599-3.014 7.968-2.109 12.034 1.514 6.808 11.523 8.712 16.822 4.433 1.815-1.466 2.94-3.53 3.168-5.815.345-3.46-.987-7.644-4.016-10.95z"/>
        <path fill="#FFF" d="M26.332 49.391c-.325-.355-.83-.834-1.046.248-.073.368-.244.651-.39.88-.158-.8-.632-1.626-1.08-2.183-.167-.209-.761-1.038-.875-2.424a.25.25 0 0 0-.417-.165c-1.47 1.334-2.276 3.169-2.306 5.234 0 0-.612-.516-.944-1.475-.09-.259-.436-.308-.587-.08a2.237 2.237 0 0 0-.08.131c-1.133 2.005-1.678 4.44-1.174 6.705 1.148 5.165 10.56 5.009 11.137-.77.191-1.928-.55-4.26-2.238-6.1z"/>
        <path fill="#FFEFAA" d="M19.618 57.287c-.504-2.026.041-4.204 1.175-5.997.024-.039.05-.078.08-.117.15-.205.496-.16.586.07.332.859.944 1.32.944 1.32a5.98 5.98 0 0 1 1.585-4.001c-.226-.313-.917-1.067-1.047-2.65a.25.25 0 0 0-.417-.165c-1.47 1.334-2.276 3.169-2.306 5.234 0 0-.612-.515-.944-1.475-.09-.258-.436-.308-.587-.079a2.237 2.237 0 0 0-.08.13c-1.133 2.005-1.678 4.44-1.174 6.705.466 2.1 2.383 3.361 4.502 3.666-1.143-.562-2.021-1.45-2.317-2.641z"/>
        <g fill="#F02422">
            <path d="M17.503 7.442a4.793 4.793 0 0 0 0-7.442 4.793 4.793 0 0 0 0 7.442zM42.852 26.883a4.793 4.793 0 0 0 0-7.443c-1.08.88-2.36 5.523 0 7.443zM.96 28.348a3.455 3.455 0 0 0 0-5.364c-.778.633-1.7 3.98 0 5.364zM30.484 16.806a3.455 3.455 0 0 0 0-5.364 3.455 3.455 0 0 0 0 5.364z"/>
        </g>
        <path fill="#EC4B24" d="M17.928 35.207c.391-4.621 2.156-8.73 5.12-11.863a14.28 14.28 0 0 1-.076-.7.661.661 0 0 0-1.104-.436c-3.088 2.803-5.07 6.44-5.8 10.555a22.754 22.754 0 0 0-.164 1.099 20.92 20.92 0 0 0-.151 2.225c.082.016 1.95.976 2.175-.88z"/>
        <g fill="#E8C842">
            <path d="M15.797 54.256c-.804-3.798-.12-7.848 1.472-11.358a6.863 6.863 0 0 1-.895-1.734c-.16-.464-.783-.552-1.052-.142-.052.079-.1.158-.144.234-2.035 3.599-3.014 7.968-2.109 12.034.71 3.188 3.281 5.301 6.36 6.207-1.792-1.19-3.148-2.951-3.632-5.241zM20.973 42.153a13.65 13.65 0 0 1 2.273-5.762 9.406 9.406 0 0 1-.29-1.678.448.448 0 0 0-.748-.296 12.405 12.405 0 0 0-3.493 5.406h-.002c-.105.326-.254.865-.345 1.29h.003c-.185.87-.288 1.77-.302 2.7 1.476.183 2.697-.182 2.904-1.66z"/>
        </g>
    </g>
</svg>
