<svg xmlns="http://www.w3.org/2000/svg" width="56" height="56" viewBox="0 0 56 56">
    <g fill="none" fill-rule="evenodd">
        <path fill="#FFF" d="M8 8h40v40H8z"/>
        <path fill="#10AEF5" fill-rule="nonzero" d="M44.827.006C33.857 0 22.875.006 11.899 0c-1.041 0-2.053.08-3.08.306C3.612 1.45.141 5.878.07 11.102-.062 21.92.032 32.727.035 43.538c0 1.224.05 2.418.338 3.64 1.198 5.086 5.402 8.645 10.82 8.763 5.596.109 11.203.023 16.8.023 5.405 0 10.812-.006 16.213.006 1.041.006 2.05-.082 3.077-.317 5.175-1.195 8.71-5.578 8.714-10.903.003-11.205.005-22.404 0-33.607C55.994 4.945 51.05.01 44.827.006zm-.112 44.859c-3.248 3.239-8.317 4.063-12.5 1.983-.612-.306-1.156-.147-1.7-.065-9.881 1.386-19.354-5.501-21.093-15.347-.203-1.162-.356-2.324-.303-3.5a12.484 12.484 0 0 1 .256-3.084c.074-.356-.008-.65-.161-.962-2.975-6.26.052-13.338 6.633-15.453 2.695-.868 5.354-.641 7.914.562.426.194.826.303 1.288.235 6.101-.832 11.5.683 16.018 4.925 3.527 3.31 5.492 7.413 5.901 12.255.13 1.574.05 3.124-.197 4.675-.059.373.03.694.2 1.041 2.115 4.307 1.227 9.26-2.256 12.735zM34.65 27.123c-1.477-.735-3.062-1.038-4.636-1.409-1.739-.406-3.524-.632-5.192-1.315-.753-.312-1.38-.782-1.439-1.688-.056-.995.394-1.736 1.244-2.219.339-.185.71-.373 1.086-.43 2.471-.426 4.748-.155 6.495 1.913.339.409.706.797 1.177 1.06.933.526 2.242.36 3.057-.386.65-.603.8-1.662.373-2.645-.32-.735-.806-1.365-1.465-1.81-4.315-2.953-8.925-3.259-13.62-1.164-3.016 1.347-4.307 4.43-3.545 7.546.524 2.174 2.033 3.412 4.015 4.168 1.595.62 3.283.91 4.937 1.333 1.244.314 2.518.553 3.715 1 1.839.674 2.136 2.55.792 3.977-1.518 1.603-6.466 1.786-8.346-.809-.33-.453-.686-.891-1.06-1.3-.82-.912-2.273-1.153-3.215-.556-.988.62-1.312 1.8-.867 3.042.435 1.218 1.28 2.1 2.312 2.806 2.291 1.571 4.898 1.948 7.59 1.965 2.65-.011 5.183-.417 7.41-2.015 3.504-2.53 3.642-8.863-.818-11.064z"/>
    </g>
</svg>
