<svg xmlns="http://www.w3.org/2000/svg" xmlns:xlink="http://www.w3.org/1999/xlink" width="72" height="60" viewBox="0 0 72 60">
    <defs>
        <linearGradient id="a" x1="50%" x2="50%" y1="0%" y2="100%">
            <stop offset="0%" stop-color="#FFE5B9"/>
            <stop offset="100%" stop-color="#FFD7A3"/>
        </linearGradient>
        <path id="c" d="M15.637 36.45l.014 1.968a9.445 9.445 0 0 1-2.552-.36C4.326 43.587-.008 45.964.095 45.19l.99-7.43c.182-1.359 1.024-2.54 2.411-3.233l2.764-1.218C2.756 29.102.254 22.465.254 14.02c0-5.123 3.02-9.459 7.292-11.9 6.37-.604 7.898 4.805 7.898 6.982a5.65 5.65 0 0 1-3.995 1.656H7.996a4.138 4.138 0 0 0-4.138 4.138v1.655a2.483 2.483 0 1 0 0 4.965v.828a4.965 4.965 0 0 0 3.056 4.583l3.565 1.486v2.669c0 .712-.456 1.345-1.132 1.57l-1.005.37a.82.82 0 0 0-.951-.214l-1.13.499z"/>
        <filter id="b" width="272.5%" height="162.4%" x="-85.7%" y="-31.2%" filterUnits="objectBoundingBox">
            <feOffset in="SourceAlpha" result="shadowOffsetOuter1"/>
            <feGaussianBlur in="shadowOffsetOuter1" result="shadowBlurOuter1" stdDeviation="4.5"/>
            <feColorMatrix in="shadowBlurOuter1" values="0 0 0 0 0.450980392 0 0 0 0 0.411764706 0 0 0 0 0.345098039 0 0 0 0.5 0"/>
        </filter>
        <linearGradient id="d" x1="50%" x2="50%" y1="0%" y2="100%">
            <stop offset="0%" stop-color="#FFF2D9"/>
            <stop offset="100%" stop-color="#FFE1B2"/>
        </linearGradient>
    </defs>
    <g fill="none" fill-rule="nonzero">
        <path fill="#FDC88E" d="M71.394 49.47l-.078-.702a.507.507 0 0 0-.56-.448l-.043.005-.756-6.044a3.441 3.441 0 0 0-2.326-2.838l-4.199-1.4a1.72 1.72 0 0 0-1.653.31l-1.237-.413a1.72 1.72 0 0 1-1.176-1.632v-2.774l3.705-1.544a5.16 5.16 0 0 0 3.176-4.764v-.86a2.58 2.58 0 0 0 2.035-4.168c.748-1.886 2.442-7.288.546-13.897 0 0-.308-.226-.883-.566-.156-1.983-.837-2.875-.837-2.875l-3.14 1.047C61.232 4.919 57.386 4 52.484 4c0 0-.565.591-1.72.86 0 0-2.93-.645-6.022-.86l-1.72 4.301s-4.301-.036-4.301 5.161c0 1.906 1.062 6.66 1.516 8.604a2.58 2.58 0 0 0 1.924 4.3v.86a5.161 5.161 0 0 0 3.176 4.764l3.706 1.544v2.774a1.72 1.72 0 0 1-1.176 1.633l-1.237.412a1.72 1.72 0 0 0-1.654-.31l-4.198 1.4a3.441 3.441 0 0 0-2.327 2.838l-.755 6.044-.044-.004a.507.507 0 0 0-.56.447l-.077.703c-.031.278.17.528.447.56l1.258.139v2.002c0 .95.77 1.72 1.72 1.72h27.528c.95 0 1.72-.77 1.72-1.72V50.17l1.258-.14a.506.506 0 0 0 .448-.56z"/>
        <path fill="#F5B97A" d="M59.366 33.462H49.043v2.846c0 .62-.343 1.165-.862 1.47 7.214 1.262 11.185-4.316 11.185-4.316z"/>
        <path fill="url(#a)" d="M29.247 17.204v-1.72a4.301 4.301 0 0 0-4.3-4.301H9.461a4.301 4.301 0 0 0-4.3 4.3v1.721a2.58 2.58 0 1 0 0 5.162v.86a5.161 5.161 0 0 0 3.175 4.764l5.559 2.316a8.603 8.603 0 0 0 6.617 0l5.558-2.316a5.161 5.161 0 0 0 3.176-4.764v-.86a2.58 2.58 0 1 0 0-5.162z" transform="translate(37 4)"/>
        <path fill="#F02422" d="M63.667 53.893v-4.301h7.204l-.914-7.311a3.441 3.441 0 0 0-2.326-2.838l-4.199-1.4c-.73-.243-1.554.017-1.967.668a8.587 8.587 0 0 1-7.26 3.999 8.587 8.587 0 0 1-7.262-3.999c-.413-.65-1.235-.911-1.967-.667l-4.198 1.4a3.441 3.441 0 0 0-2.326 2.837l-.819 6.545 7.109.013v5.054h18.925z"/>
        <path fill="#623F33" d="M48.183 24.645a.863.863 0 0 1-.86-.86v-.86c0-.473.387-.86.86-.86s.86.387.86.86v.86c0 .473-.387.86-.86.86zM60.226 24.645a.863.863 0 0 1-.86-.86v-.86c0-.473.387-.86.86-.86s.86.387.86.86v.86c0 .473-.387.86-.86.86z"/>
        <path fill="#E4B07B" d="M54.204 30.69c-1.529 0-2.96-.376-3.924-1.033a.86.86 0 1 1 .967-1.422c.677.46 1.782.735 2.957.735 1.176 0 2.281-.275 2.957-.735a.86.86 0 1 1 .968 1.422c-.965.657-2.395 1.033-3.925 1.033z"/>
        <path fill="#FDC88E" d="M46.677 30.207a4.033 4.033 0 0 1-1.075-2.756V19.86c2.374-1.284 9.312-4.676 16.344-4.676H46.462c-.296 0-.583.034-.86.095v-.009a4.302 4.302 0 0 0-3.44 4.215v1.72a2.58 2.58 0 1 0 0 5.162v.86a5.161 5.161 0 0 0 3.175 4.764l5.558 2.316c.273.113.55.211.831.296-2.456-1.797-4.09-3.368-5.049-4.395z"/>
        <path fill="#C40D0B" d="M44.742 50.24v-1.946c0-.828-.298-1.627-.84-2.253l-4.733-5.464a3.434 3.434 0 0 0-.717 1.704l-.899 7.188c1.368.082 5.007.508 7.189.772z"/>
        <path fill="#FA5932" d="M44.742 49.108l-7.09-.787a.507.507 0 0 0-.56.447l-.077.703c-.031.278.17.528.447.559l7.28.809v-1.73z"/>
        <path fill="#C40D0B" d="M63.667 50.24v-1.946c0-.828.298-1.627.84-2.253l4.733-5.464c.382.484.638 1.068.717 1.704l.899 7.188c-1.368.082-5.008.508-7.19.772z"/>
        <path fill="#FA5932" d="M63.667 49.108l7.09-.787c.278-.031.528.169.559.447l.078.703a.506.506 0 0 1-.447.559l-7.28.809v-1.73z"/>
        <path fill="#1B110A" d="M68.828 8.301s-.308-.226-.883-.566c-.156-1.983-.837-2.875-.837-2.875l-3.14 1.047C61.232 4.919 57.386 4 52.484 4c0 0-.565.591-1.72.86 0 0-2.93-.645-6.022-.86l-1.72 4.301s-4.301-.036-4.301 5.161c0 1.91 1.066 6.678 1.519 8.615a2.564 2.564 0 0 1 1.921-.873v-1.72a4.297 4.297 0 0 1 4.24-4.295c-.661 1.433-.799 2.574-.799 2.574 2.15-1.433 4.946-2.58 8.602-2.58h7.742a4.301 4.301 0 0 1 4.301 4.3v1.721c.83 0 1.559.398 2.03 1.005.746-1.877 2.45-7.287.551-13.908z"/>
        <path fill="#292929" d="M67.108 4.86l-3.14 1.047C61.232 4.919 57.386 4 52.484 4c0 0-.565.591-1.72.86 0 0-2.93-.645-6.022-.86l-1.72 4.301s-4.301-.036-4.301 5.161c0 1.91 1.066 6.678 1.519 8.615a2.564 2.564 0 0 1 1.921-.873v-1.72c0-2.245 1.727-4.068 3.922-4.263-.231.642-.48 1.556-.48 2.542 3.386-4.3 8.197-5.852 12.042-6.881 3.817-1.022 4.301-2.58 4.301-2.58s3.764-.216 5.162-3.442z"/>
        <g>
            <use fill="#000" filter="url(#b)" transform="translate(9 6)" xlink:href="#c"/>
            <path fill="#5E3B1B" d="M43.479 40.759s-5.272 3.985-13.241 4.965h-8.07S9.255 35.105 9.255 20.022C9.254 12.077 16.498 6 24.44 6h.007c7.943 0 14.834 6.422 15.187 14.02.637 13.704 3.844 20.739 3.844 20.739z"/>
            <path fill="#7F4F21" d="M24.444 15.103c0-2.177-1.528-7.586-7.898-6.982-4.271 2.441-7.292 6.777-7.292 11.9 0 15.082 7.983 24.397 15.397 24.397l-.207-29.315z"/>
            <path fill="#FFD7A3" d="M39.794 51.19l-.99-7.43c-.182-1.36-1.024-2.54-2.412-3.234l-3.894-1.717a.82.82 0 0 0-.952.214l-1.004-.37a1.655 1.655 0 0 1-1.132-1.57v-2.67l3.565-1.485a4.965 4.965 0 0 0 3.056-4.583v-.828a2.483 2.483 0 1 0 0-4.965v-1.655a4.138 4.138 0 0 0-4.138-4.138H28.44a5.65 5.65 0 0 1-3.996-1.656 5.65 5.65 0 0 1-3.995 1.656h-3.453a4.138 4.138 0 0 0-4.138 4.138v1.655a2.483 2.483 0 1 0 0 4.965v.828a4.965 4.965 0 0 0 3.056 4.583l3.565 1.486v2.669c0 .712-.456 1.345-1.132 1.57l-1.005.37a.82.82 0 0 0-.951-.214l-3.895 1.717c-1.387.693-2.23 1.874-2.41 3.234l-.99 7.43a2.483 2.483 0 0 0 2.46 2.81H37.333a2.483 2.483 0 0 0 2.46-2.81z"/>
            <path fill="#FDC88E" d="M29.41 34.414l-9.931-.069v2.738c0 .589-.312 1.123-.802 1.417 6.923 1.197 10.733-4.086 10.733-4.086z"/>
            <path fill="url(#d)" d="M27.03 16.552v-1.655a4.138 4.138 0 0 0-4.137-4.138H19.44a5.65 5.65 0 0 1-3.996-1.656 5.65 5.65 0 0 1-3.995 1.656H7.996a4.138 4.138 0 0 0-4.138 4.138v1.655a2.483 2.483 0 1 0 0 4.965v.828a4.965 4.965 0 0 0 3.056 4.583l5.347 2.228a8.275 8.275 0 0 0 6.366 0l5.348-2.228a4.965 4.965 0 0 0 3.056-4.583v-.828a2.483 2.483 0 0 0 0-4.965z" transform="translate(9 6)"/>
            <path fill="#623F33" d="M18.651 25.862a.83.83 0 0 1-.827-.828v-.827a.83.83 0 0 1 .827-.828.83.83 0 0 1 .828.828v.827a.83.83 0 0 1-.828.828zM30.238 25.862a.83.83 0 0 1-.828-.828v-.827a.83.83 0 0 1 .828-.828.83.83 0 0 1 .827.828v.827a.83.83 0 0 1-.827.828z"/>
            <path fill="#E4B07B" d="M24.444 31.678c-1.47 0-2.847-.362-3.775-.994a.827.827 0 1 1 .93-1.368c.651.442 1.715.707 2.845.707 1.131 0 2.195-.265 2.845-.707a.827.827 0 1 1 .931 1.368c-.928.632-2.304.994-3.776.994z"/>
            <path fill="#292929" d="M39.794 51.19l-.99-7.43c-.182-1.36-1.024-2.54-2.412-3.234l-3.894-1.717a.82.82 0 0 0-1.1.46 7.44 7.44 0 0 1-6.954 4.8 7.441 7.441 0 0 1-6.954-4.8.82.82 0 0 0-1.1-.46l-3.894 1.717c-1.387.693-2.23 1.874-2.41 3.234l-.991 7.429A2.483 2.483 0 0 0 11.556 54h25.777a2.483 2.483 0 0 0 2.46-2.81z"/>
            <path fill="#FFC900" d="M33.945 39.793l-2.978 4.764a2.483 2.483 0 0 1-2.106 1.167h-8.834a2.483 2.483 0 0 1-2.105-1.167l-2.978-4.764a.828.828 0 0 0-1.127-.271l-2.719 1.63a.828.828 0 0 0-.276 1.149l3.691 5.906h19.862l3.692-5.906a.828.828 0 0 0-.276-1.148l-2.719-1.632a.828.828 0 0 0-1.127.272z"/>
            <path fill="#F3B80E" d="M14.513 48h19.862v6H14.513z"/>
            <path fill="#FFD7A3" d="M25.55 15.956a5.642 5.642 0 0 1-1.106-.853 5.651 5.651 0 0 1-3.996 1.656h-3.452c-.284 0-.56.03-.828.086v-.003a4.139 4.139 0 0 0-3.31 4.055v1.655a2.483 2.483 0 1 0 0 4.965v.828a4.965 4.965 0 0 0 3.056 4.583l5.347 2.228c.262.11.529.203.8.285-2.364-1.729-3.937-3.24-4.859-4.228a3.88 3.88 0 0 1-1.034-2.651V18.444c7.094.212 8.491-1.13 9.382-2.488z"/>
        </g>
    </g>
</svg>
